<svg width="4546" height="2111" viewBox="0 0 4546 2111" fill="none" xmlns="http://www.w3.org/2000/svg">
<path d="M2.54993 87.025C126.87 72.352 241.72 35.292 368.888 13.056C651.661 -37.575 908.5 63.688 1131.99 236.616C1176.45 269.969 1233.28 316.945 1287.6 274.927C1371.56 208.22 1437 127.941 1546.89 103.251C1691.38 71.1 1812.39 152.631 1933.4 211.926C2037.09 262.557 2154.39 236.616 2258.13 199.556C2584.11 80.965 2919.95 -7.97798 3269.42 37.746C3494.16 67.394 3641.11 250.187 3801.62 398.426C3846.08 437.939 3896.74 479.907 3960.93 466.335C4136.26 428.023 4237.49 290.953 4378.28 187.186C4428.9 151.379 4480.76 125.437 4538.79 108.159C4537.54 118.025 4542.5 135.303 4538.79 136.555C4475.81 162.496 4416.53 188.438 4359.7 231.658C4226.38 332.92 4121.39 460.175 3957.17 503.394C3916.42 514.512 3875.67 497.185 3846.03 468.789C3683.06 320.601 3548.48 139.009 3327.44 80.965C2916.3 -26.507 2523.63 145.219 2142.13 279.835C2064.33 308.231 1977.86 309.483 1902.56 265.011C1792.67 198.304 1683.97 106.907 1549.4 143.967C1444.41 172.362 1381.42 260.053 1306.12 332.92C1266.62 371.232 1216.01 341.584 1182.66 311.937C948.052 106.857 659.071 -32.667 341.752 42.654C224.45 69.848 118.26 105.655 2.59998 119.628L2.54993 87.025ZM2.44995 156.437C134.28 136.505 255.29 85.873 391.116 61.184C555.333 31.536 714.593 56.226 862.789 125.387C1006.03 192.094 1111.02 302.021 1234.48 402.082C1265.37 426.771 1303.62 426.771 1329.55 394.67C1397.49 314.391 1453.07 220.54 1558.01 189.64C1627.15 168.657 1693.84 193.346 1753.11 234.112C1808.69 272.373 1848.19 318.097 1906.22 346.492C1992.68 389.712 2089.01 361.316 2171.72 325.509C2544.61 163.749 2960.71 -14.137 3364.54 122.983C3550.99 185.984 3680.66 332.971 3811.53 478.705C3854.74 526.882 3917.72 570.102 3983.16 538C4115.28 472.495 4220.22 379.896 4333.82 283.541C4396.75 231.658 4464.69 193.346 4541.24 172.362C4539.99 183.48 4544.95 199.506 4541.24 200.758C4473.35 225.498 4409.12 253.894 4349.84 299.617C4220.17 402.182 4109.07 514.563 3960.88 580.018C3892.94 609.665 3838.62 544.21 3797.86 494.781C3646.01 309.533 3473.13 141.563 3231.11 106.957C2828.58 50.166 2469.26 231.708 2116.09 393.518C2049.46 424.418 1970.4 445.401 1897.55 415.754C1832.07 388.56 1793.82 328.063 1738.24 283.591C1683.92 239.12 1612.33 209.472 1545.64 239.12C1451.82 279.885 1406.11 372.484 1345.63 454.015C1318.44 491.075 1272.78 483.663 1245.59 456.469C1077.67 292.205 912.204 127.941 667.731 82.218C468.919 45.158 289.882 109.361 105.89 166.203C71.3399 176.068 36.75 183.48 2.19995 189.29L2.44995 156.437ZM1.84998 226.349C19.53 222.944 38.0499 220.49 55.3199 215.532C281.271 142.665 512.177 46.36 751.743 125.387C960.418 195.8 1104.91 352.652 1250.6 512.008C1274.08 537.95 1316.04 566.346 1345.68 534.244C1390.13 487.269 1414.82 432.931 1453.12 378.594C1493.87 321.752 1546.94 271.121 1621.04 285.945C1702.55 302.021 1748.21 369.98 1797.62 430.477C1872.97 525.58 1997.69 500.89 2091.51 456.419C2397.72 308.231 2695.31 143.967 3039.81 116.773C3381.81 89.579 3642.36 316.845 3844.88 578.715C3952.32 718.29 4085.64 528.084 4189.38 458.923C4309.14 377.392 4401.76 266.263 4543.75 239.07C4542.5 250.187 4548.7 266.263 4540.04 268.717C4321.45 331.718 4185.63 507.1 3999.23 639.313C3939.95 681.28 3873.26 673.868 3833.76 613.371C3680.66 379.946 3485.55 178.622 3202.78 145.269C2822.48 100.797 2490.34 295.961 2163.11 461.477C2058.12 515.814 1933.4 597.295 1817.35 529.386C1765.48 498.487 1742 445.401 1706.2 399.678C1654.33 332.97 1559.26 310.735 1501.23 379.896C1454.32 435.435 1425.93 495.983 1387.63 557.732C1372.81 579.967 1357.99 609.615 1328.35 607.161C1293.81 604.657 1266.62 577.514 1245.64 550.32C1087.59 351.5 914.708 169.908 654.164 122.983C436.877 84.671 251.63 187.236 54.0699 247.733C36.7499 252.641 18.27 255.145 1.44995 259.653L1.84998 226.349ZM1 297.363C28.14 292.155 55.27 284.743 82.46 274.877C263.95 208.17 441.784 113.067 645.503 145.168C931.981 189.64 1104.81 408.291 1271.53 626.893C1294.96 656.54 1340.67 693.6 1372.76 658.994C1424.63 602.203 1445.61 531.79 1488.82 466.335C1517.2 421.863 1569.07 383.552 1620.94 410.745C1685.17 442.847 1709.86 514.512 1754.32 568.849C1848.14 682.482 2003.74 582.471 2106.23 533.042C2418.64 384.854 2712.53 177.32 3064.45 160.042C3192.86 153.832 3318.83 182.278 3434.88 240.321C3625.03 334.172 3729.97 503.394 3852.23 678.776C3886.78 728.206 3943.61 714.634 3986.81 683.734C4174.51 546.614 4319 355.156 4544.95 308.231C4543.7 319.348 4549.91 335.424 4541.24 337.878C4325.16 389.762 4188.13 556.48 4019.06 688.642C3980.75 718.24 3942.5 763.963 3890.64 749.139C3851.13 736.819 3831.36 697.306 3812.83 662.7C3689.37 432.981 3501.67 232.859 3233.72 189.64C2796.64 119.227 2449.63 413.199 2080.45 584.875C1991.53 626.843 1905.06 670.112 1807.54 679.978C1730.98 688.642 1713.71 593.539 1675.41 537.95C1648.23 498.436 1612.43 452.713 1564.26 468.789C1480.25 495.932 1464.23 593.539 1419.77 665.154C1404.95 689.844 1392.59 721.996 1360.5 724.45C1323.45 728.156 1296.26 700.962 1275.28 672.566C1103.66 436.637 923.369 194.548 618.367 161.194C409.692 137.757 234.36 255.095 46.6599 320.55C31.8399 325.508 15.77 326.76 0.599976 331.167L1 297.363ZM0.149902 369.63C26.7899 363.921 52.7199 355.257 78.6499 345.391C228.05 288.549 362.629 194.698 525.644 183.581C868.897 158.891 1093.64 439.242 1266.52 708.525C1288.75 741.878 1315.89 769.022 1354.19 781.392C1393.69 793.712 1415.92 755.45 1434.44 725.802C1473.95 661.549 1481.36 566.446 1559.16 549.168C1653.03 528.135 1674.01 655.389 1713.51 723.298C1735.74 762.812 1777.7 781.342 1816 751.694C1839.43 735.618 1861.66 722.046 1885.14 710.928C1964.19 675.121 2040.74 643.019 2117.29 602.254C2350.7 477.503 2577.9 366.324 2814.97 256.398C2897.73 218.136 2985.39 204.514 3075.51 198.354C3413.86 177.371 3691.67 428.074 3820.09 725.752C3833.71 757.854 3855.89 793.661 3894.19 797.367C3923.83 801.073 3948.51 782.544 3971.99 764.014C4153.53 615.775 4310.34 416.906 4544.95 377.392C4543.7 388.51 4549.91 407.04 4541.24 408.292C4314.04 450.259 4163.4 625.691 4000.43 772.628C3964.58 803.477 3925.08 852.907 3878.17 834.377C3796.66 799.771 3788 692.299 3744.79 616.977C3669.44 487.269 3575.62 376.14 3443.5 302.021C3201.53 164.951 2921.21 204.464 2686.6 351.451C2584.11 415.704 2475.47 449.007 2369.28 502.143C2213.72 581.17 2065.53 660.247 1908.72 735.568C1877.88 750.392 1854.4 772.628 1828.46 794.863C1808.69 813.393 1793.87 835.629 1769.19 846.747C1749.41 855.411 1732.14 839.335 1721.02 824.511C1669.15 755.35 1660.54 658.995 1582.74 618.229C1555.55 603.406 1529.62 628.095 1512.35 651.583C1467.89 710.878 1465.38 804.729 1390.08 823.259C1324.65 839.335 1278.99 771.426 1244.39 718.29C1117.17 526.833 1001.12 337.829 788.742 247.684C639.345 183.48 471.423 188.388 324.479 258.801C215.79 309.433 117.01 379.846 0.0499268 403.885L0.149902 369.63ZM0.0499268 442.747C114.65 416.905 210.93 348.946 314.665 290.903C496.154 189.64 709.786 202.01 886.369 321.802C1049.33 432.981 1129.59 587.379 1233.33 747.937C1272.83 808.485 1320.99 868.982 1395.09 877.646C1420.97 880.15 1442 857.914 1459.28 838.132C1495.07 791.157 1508.69 689.894 1576.58 708.424C1640.76 725.702 1651.88 805.981 1686.48 861.57C1706.25 892.42 1724.73 961.631 1766.73 938.143C1800.02 919.613 1811.14 880.1 1834.62 847.998C1860.55 812.191 1891.4 781.291 1929.7 760.307C2038.34 702.264 2143.33 652.835 2251.97 594.791C2412.48 508.302 2581.66 468.789 2736.01 366.274C2981.74 202.01 3283.03 192.144 3517.64 367.526C3680.61 489.773 3748.55 666.406 3821.39 843.04C3831.26 866.528 3853.49 888.764 3881.87 885.058C3927.53 880.15 3958.42 846.796 3990.52 817.149C4152.28 662.75 4315.3 474.999 4544.95 449.057C4544.95 460.175 4546.2 478.705 4544.95 478.705C4311.59 510.806 4151.08 691.146 3990.47 845.444C3950.96 883.706 3901.55 945.455 3843.52 920.765C3818.84 910.899 3805.22 884.958 3799.06 860.268C3738.58 629.297 3616.32 415.653 3394.08 315.592C3236.02 243.977 3053.28 232.86 2897.67 315.592C2826.03 353.904 2769.25 410.695 2691.45 436.637C2429.66 521.874 2197.55 647.877 1954.28 775.081C1864.11 822.057 1825.86 913.453 1788.81 1003.6C1783.85 1015.97 1776.44 1029.54 1762.88 1034.5C1746.85 1038.2 1735.74 1024.63 1727.08 1013.51C1672.76 939.445 1657.94 851.704 1591.25 791.207C1566.57 768.971 1535.68 791.207 1518.4 815.897C1488.76 859.116 1464.08 914.705 1409.76 914.705C1310.98 912.252 1249.25 820.855 1202.34 739.324C1092.44 549.118 971.432 358.912 760.303 277.381C623.272 224.296 471.372 234.162 340.499 303.323C225.7 363.82 126.92 452.763 0 477.453L0.0499268 442.747ZM0.0999756 516.466C41.66 510.807 81.16 498.437 118.21 473.747C310.861 345.291 513.329 199.556 749.19 290.953C961.57 374.938 1082.58 567.648 1187.52 760.308C1231.98 843.041 1296.21 912.202 1382.63 949.261C1443.11 975.203 1494.97 933.236 1535.73 891.218C1569.07 855.411 1611.08 891.218 1632.05 925.824C1675.31 996.237 1692.58 1075.26 1754.32 1130.85C1770.39 1145.68 1786.46 1122.24 1792.62 1106.16C1830.92 992.531 1850.64 856.663 1969.2 794.913C2229.74 657.793 2480.37 533.042 2764.4 449.057C2827.38 430.528 2865.63 378.694 2922.46 344.089C3019.99 282.339 3129.88 272.423 3239.78 288.499C3546.03 332.971 3736.18 603.456 3783.09 897.428C3789.3 933.236 3811.48 977.707 3853.49 974.001C3900.4 969.043 3933.74 934.488 3965.83 903.588C4135.01 741.778 4300.48 535.496 4544.95 520.673C4544.95 531.79 4544.95 550.32 4544.95 550.32C4298.02 570.102 4133.76 771.426 3965.88 931.884C3927.58 970.195 3886.88 1014.67 3830.06 1013.42C3784.4 1012.21 3769.58 957.875 3764.62 919.564C3738.69 700.962 3639.9 493.479 3443.6 378.594C3289.24 289.701 3099.09 264.961 2944.74 372.434C2899.03 403.334 2870.64 450.259 2818.77 465.083C2506.36 551.572 2228.54 662.751 1950.72 836.881C1829.72 914.656 1840.83 1067.85 1797.62 1191.35C1792.72 1203.67 1786.51 1217.29 1772.94 1219.75C1749.46 1224.7 1739.6 1200.02 1727.23 1183.94C1670.46 1108.57 1656.84 959.127 1548.19 959.127C1458.07 1027.04 1349.38 975.153 1274.08 905.992C1188.87 828.167 1145.66 726.904 1090.09 628.095C1014.74 492.227 907.349 382.3 766.563 318.097C541.816 215.582 331.889 350.249 152.85 488.571C107.14 523.177 56.53 545.412 0.349976 551.121L0.0999756 516.466ZM0.5 589.933C70.04 586.177 129.32 552.823 183.64 509.604C300.948 418.207 410.843 313.238 562.743 304.574C751.643 293.456 926.974 402.131 1023.3 563.941C1146.76 775.131 1278.89 1065.4 1561.66 1035.75C1661.69 1075.26 1674.01 1196.31 1729.58 1281.55C1739.45 1295.12 1750.56 1308.74 1766.63 1307.49C1793.77 1306.28 1802.43 1275.39 1809.84 1253.15C1848.14 1133.36 1838.28 1006.1 1917.28 897.427C1943.22 861.62 1977.76 838.132 2016.06 819.602C2139.52 760.307 2255.58 694.852 2381.54 640.514C2507.51 586.127 2632.22 549.117 2770.51 521.924C2861.88 503.394 2918.7 449.056 2990.3 394.719C3136.04 284.792 3327.39 320.6 3475.59 420.661C3664.54 549.117 3736.13 759.105 3748.5 970.294C3750.95 1006.1 3764.57 1056.73 3807.78 1057.98C3870.76 1060.49 3918.92 1009.86 3962.13 967.84C4118.94 813.442 4269.59 633.102 4493.53 593.338C4527.18 591.586 4544.95 591.485 4544.95 591.485V625.089C4544.95 625.089 4527.18 625.089 4493.63 626.391C4268.38 660.246 4116.48 841.838 3960.98 996.186C3917.77 1040.66 3872.06 1083.88 3807.88 1097.45C3763.42 1106.06 3733.78 1066.55 3733.78 1027.04C3734.98 770.123 3631.29 487.268 3373.2 388.459C3253.44 341.534 3105.25 340.282 3004.02 429.225C2959.56 468.738 2923.71 514.462 2863.23 525.579C2550.82 583.623 2284.12 694.801 2010 845.494C1982.82 860.317 1959.39 877.645 1939.61 902.335C1843.28 1015.97 1863.06 1166.66 1821.05 1300.07C1811.19 1328.47 1800.08 1364.28 1766.73 1371.69C1743.25 1376.65 1723.52 1359.37 1711.16 1339.59C1661.74 1253.15 1654.33 1127.15 1548.14 1097.5C1369.11 1049.37 1209.85 943.151 1124.64 780.088C1038.22 614.572 949.304 440.393 770.267 361.366C635.69 300.818 478.833 309.482 355.37 400.879C239.27 487.318 149.15 614.572 0.75 624.188L0.5 589.933ZM0.799927 662.501C84.8599 662.701 158.96 617.027 216.99 557.732C339.249 431.73 486.193 305.727 676.344 351.451C815.878 384.804 925.773 469.991 998.619 592.288C1055.39 689.844 1088.74 789.905 1162.84 877.596C1273.98 1010.96 1417.17 1073.96 1561.66 1169.07C1624.64 1211.03 1633.31 1287.66 1661.69 1351.86C1681.47 1395.08 1735.79 1453.12 1779 1416.06C1871.57 1337.04 1853.05 1208.58 1876.53 1094.95C1896.3 996.137 1938.31 905.992 2028.43 857.814C2307.45 708.374 2582.81 603.406 2898.93 550.27C2931.02 545.312 2960.66 532.942 2981.64 508.253C3097.74 368.678 3295.3 358.812 3444.7 446.503C3665.74 577.414 3716.36 830.621 3710.2 1062.84C3708.95 1101.11 3733.63 1148.03 3778.09 1138.17C3948.51 1102.36 4026.32 940.547 4153.48 835.579C4254.72 751.594 4363.41 675.021 4493.68 663.652C4527.13 662.851 4544.9 662.851 4544.9 662.851V696.455C4544.9 696.455 4527.13 696.455 4493.73 696.906C4239.9 719.492 4092.95 944.253 3906.51 1099.9C3855.89 1141.87 3792.91 1196.21 3725.02 1167.81C3695.38 1155.44 3690.42 1117.18 3687.97 1087.53C3683.06 968.993 3699.08 847.949 3655.88 733.064C3601.55 587.33 3490.41 458.873 3329.9 429.226C3243.48 413.2 3158.27 418.108 3085.42 471.243C3033.55 509.555 2995.25 560.186 2931.07 571.304C2590.27 629.347 2285.27 709.626 1993.88 912.202C1871.62 996.187 1887.69 1148.08 1861.76 1281.49C1846.94 1353.11 1833.37 1445.76 1759.27 1460.59C1697.54 1471.7 1637.01 1416.11 1612.33 1356.82C1588.9 1298.77 1579.03 1234.57 1525.91 1196.26C1308.63 1036.95 1097.45 888.714 996.216 636.759C920.916 451.461 707.285 314.391 502.314 376.14C364.032 418.158 288.682 541.656 180.04 630.599C129.37 672.567 67.64 699.76 0.949951 696.355L0.799927 662.501ZM0.899902 734.316C68.7899 736.821 136.68 714.635 186.1 668.911C318.221 547.867 428.116 366.275 628.13 382.351C845.417 399.629 959.017 597.246 1047.93 773.88C1130.64 941.9 1282.54 1045.62 1428.24 1164.21C1481.36 1207.48 1510.99 1264.27 1535.68 1327.27C1571.47 1417.47 1669 1500.2 1769.04 1486.63C1857.95 1474.31 1859.15 1359.42 1875.23 1282.85C1901.16 1151.94 1890.04 1006.2 2009.8 924.672C2308.6 722.097 2621.01 650.482 2965.51 593.64C3029.7 582.523 3068 530.639 3122.32 498.538C3296.45 398.477 3505.13 492.328 3602.66 659.096C3690.32 809.788 3661.93 974.052 3664.39 1133.41C3664.39 1165.51 3680.46 1202.57 3716.26 1211.23C3774.28 1226.06 3822.45 1191.45 3866.9 1159.35C3983.01 1076.57 4059.56 976.506 4164.5 886.361C4260.82 804.83 4369.52 743.081 4493.73 734.567C4527.08 734.367 4544.85 734.367 4544.85 734.367V767.971C4544.85 767.971 4527.08 767.971 4493.78 768.021C4262.08 780.09 4111.43 970.296 3947.21 1117.28C3874.36 1181.48 3770.63 1297.57 3675.55 1225.96C3608.86 1175.28 3643.46 1076.47 3649.62 1001.15C3663.19 852.957 3632.29 699.761 3523.65 591.086C3394.03 460.176 3196.47 479.958 3044.57 584.926C2937.13 658.995 2808.71 646.676 2681.54 671.365C2448.18 714.585 2251.87 808.486 2049.36 917.16C1896.25 999.943 1911.07 1188.9 1877.73 1343.3C1865.41 1400.14 1851.84 1455.68 1809.84 1497.7C1780.2 1526.09 1736.99 1517.48 1703.65 1501.4C1609.83 1455.73 1511.04 1401.39 1461.63 1305.03C1439.45 1261.81 1429.54 1214.89 1393.74 1180.28C1214.7 1008.61 1034.42 848.049 935.636 615.826C868.998 461.478 683.753 362.619 515.832 415.754C382.506 458.974 314.566 583.724 219.49 678.827C173.83 725.753 115.8 756.602 51.62 766.668C18.68 767.92 0.949951 767.92 0.949951 767.92L0.899902 734.316ZM0.949951 839.335C0.949951 839.335 0.96669 839.335 1 839.335V839.335H0.949951ZM1 839.335V805.681C1 805.681 18.7699 805.681 51.9199 805.13C101.08 799.771 146.74 783.695 187.5 755.3C267.75 696.004 308.507 616.927 370.239 541.606C471.472 419.36 639.394 388.46 776.475 469.991C899.938 542.858 930.829 677.475 1003.67 792.359C1055.54 875.092 1114.82 940.598 1182.71 1008.51C1260.51 1088.84 1324.7 1171.57 1377.82 1270.38C1439.55 1384.01 1561.76 1442.05 1672.91 1508.76C1713.66 1532.25 1761.82 1554.49 1805.03 1527.29C1849.44 1498.9 1863.06 1449.47 1876.63 1402.54C1924.79 1243.23 1891.45 1040.66 2051.96 941.85C2335.93 767.72 2634.78 689.895 2957.05 649.129C3041.01 639.213 3107.7 592.288 3183 560.186C3273.12 519.421 3380.56 535.497 3464.52 586.128C3652.22 696.055 3648.52 925.774 3616.42 1119.69C3607.76 1174.07 3609.01 1240.73 3663.34 1271.63C3717.66 1303.73 3778.14 1270.43 3827.55 1239.53C3944.86 1165.41 4026.36 1066.6 4128.85 975.203C4232.59 882.604 4354.8 808.485 4493.93 805.731C4527.18 805.731 4544.95 805.731 4544.95 805.731V839.335C4544.95 839.335 4527.23 839.335 4493.93 839.335C4336.27 839.335 4204.15 930.732 4090.65 1035.7C3993.12 1127.1 3906.71 1223.45 3788.15 1286.45C3741.19 1311.19 3679.46 1333.43 3636.25 1295.12C3552.29 1219.8 3599.2 1099.95 3611.57 1002.4C3626.39 878.898 3606.66 744.232 3510.33 657.793C3423.87 580.018 3293 556.53 3186.81 597.296C3121.37 620.733 3063.34 656.541 2992.95 665.205C2669.42 704.718 2368.13 786.25 2079.19 944.354C1975.46 999.943 1945.82 1111.12 1923.59 1221.05C1898.91 1340.89 1908.77 1489.08 1792.72 1555.79C1758.12 1575.57 1718.62 1558.29 1685.27 1538.51C1582.79 1475.51 1495.12 1412.51 1396.34 1340.89C1322.25 1287.76 1280.24 1216.14 1244.44 1134.61C1239.49 1123.49 1233.33 1113.58 1225.92 1103.71C1095.05 940.648 965.374 794.913 877.709 607.162C830.747 507.101 722.103 445.352 612.208 442.898C517.133 441.646 434.373 495.983 376.347 570.102C286.178 684.987 210.88 833.175 51.97 839.135C19.7389 839.329 2.05368 839.335 1 839.335ZM0.799927 910.75V877.246C0.799927 877.246 18.5299 877.246 51.8199 877.146C210.68 876.495 295.891 736.92 373.694 613.422C451.497 489.873 598.441 424.418 729.314 491.125C781.182 518.319 820.684 559.084 850.323 609.716C892.329 685.037 921.918 759.156 975.038 829.569C1061.45 944.454 1140.51 1049.42 1205.94 1175.43C1236.83 1237.17 1283.75 1282.9 1343.02 1322.41C1482.56 1417.51 1598.61 1523.74 1750.51 1581.78C1787.56 1595.35 1824.61 1571.91 1846.84 1541.01C1923.39 1428.58 1917.23 1301.38 1949.32 1176.63C1969.1 1093.89 2003.7 1014.82 2078.99 971.598C2388.95 791.258 2716.14 725.802 3065.6 675.171C3116.26 667.759 3159.47 640.565 3210.09 629.448C3319.98 604.758 3437.29 636.859 3513.84 714.685C3626.24 825.813 3595.35 988.875 3569.41 1134.61C3554.59 1212.38 3560.75 1333.43 3649.67 1338.39C3871.96 1353.21 3996.63 1125.95 4167.05 998.741C4265.83 924.622 4374.52 875.243 4493.88 877.196C4527.13 877.196 4544.9 877.196 4544.9 877.196V910.8C4544.9 910.8 4527.18 910.8 4493.88 910.8C4337.48 901.134 4204.15 990.077 4089.3 1092.59C3992.97 1179.03 3909.01 1267.97 3796.66 1330.98C3741.14 1361.88 3676.9 1392.72 3615.17 1368.04C3547.23 1339.64 3536.12 1255.65 3541.07 1188.95C3553.44 1049.37 3618.88 894.974 3520.1 775.182C3452.16 692.449 3338.56 650.431 3233.62 657.843C3174.34 662.801 3121.22 691.197 3060.74 699.861C2838.5 728.256 2622.41 760.358 2416.19 841.889C2284.07 895.024 2138.32 930.832 2037.09 1037.05C1948.17 1132.16 1949.42 1264.32 1919.78 1389.07C1897.56 1479.27 1854.35 1639.82 1743.2 1591.65C1564.16 1512.57 1409.81 1398.93 1253 1271.73C1202.39 1232.17 1161.63 1186.49 1133.25 1130.9C1065.31 999.993 987.504 890.066 904.795 764.064C876.408 720.794 856.632 678.827 834.402 634.355C782.534 526.883 657.819 458.924 541.766 500.941C418.303 547.866 368.888 671.415 293.588 776.384C235.56 859.117 147.9 907.294 51.97 910.7C18.73 910.75 0.949951 910.75 0.949951 910.75H0.799927ZM0.899902 982.163V948.559C0.899902 948.559 18.6199 948.559 51.9199 948.559C216.94 959.176 313.264 813.442 387.362 683.733C441.733 588.631 526.896 498.486 645.452 515.763C697.321 524.427 740.528 552.823 771.419 597.294C835.603 697.355 882.515 787.5 949.203 887.561C1002.32 964.134 1031.91 1039.46 1081.33 1117.28C1198.63 1301.33 1381.42 1382.86 1559.21 1498.95C1601.21 1527.34 1635.76 1554.54 1677.76 1582.93C1724.68 1613.83 1786.41 1647.18 1832.12 1602.71C1934.6 1503.9 1933.4 1355.66 1969.2 1223.5C1991.43 1140.77 2023.52 1055.53 2101.32 1011.06C2419.89 825.762 2760.69 752.895 3118.77 713.381C3140.95 710.927 3160.72 704.767 3182.95 699.809C3316.28 672.666 3447.2 743.079 3515.09 848.047C3585.48 956.722 3520.05 1081.47 3512.64 1200.06C3508.93 1268.02 3513.89 1349.5 3578.07 1391.52C3627.49 1423.62 3684.26 1406.34 3732.43 1386.56C3886.78 1326.07 3992.97 1202.57 4121.39 1095.1C4228.83 1003.7 4353.55 939.444 4493.88 948.609C4527.13 948.609 4544.9 948.609 4544.9 948.609V982.213C4544.9 982.213 4527.18 982.213 4493.88 982.213C4346.09 970.294 4213.96 1039.51 4101.61 1137.06C3975.65 1244.54 3864.5 1363.13 3707.69 1417.46C3652.12 1437.25 3580.53 1450.82 3538.52 1402.64C3455.76 1306.28 3489.11 1176.58 3508.88 1060.49C3522.45 987.622 3532.36 899.931 3461.97 851.754C3418.71 822.106 3387.87 787.5 3343.41 759.105C3303.91 734.365 3261.96 720.793 3216.25 724.499C2954.5 747.987 2696.41 778.886 2451.94 876.443C2274.1 948.108 2046.9 996.286 1986.42 1211.18C1944.42 1355.66 1953.08 1526.14 1824.66 1628.65C1791.31 1654.6 1749.36 1642.28 1716.02 1618.79C1572.78 1518.73 1444.36 1442.15 1298.66 1349.5C1172.7 1268.02 1072.67 1171.67 1001.07 1043.21C941.844 935.739 886.27 839.384 819.582 734.415C806.014 712.179 794.9 693.649 782.534 671.414C756.599 628.194 730.665 587.429 686.206 562.739C593.634 508.352 491.149 568.899 438.028 652.884C342.953 803.526 252.83 992.53 51.97 982.163C18.73 982.163 0.899902 982.163 0.899902 982.163ZM0.849976 1053.58V1019.98C0.849976 1019.98 18.58 1019.98 51.87 1019.98C265.05 1039.46 356.421 831.973 460.158 676.323C502.114 612.07 575.01 549.068 650.309 591.086C752.794 647.927 794.8 759.106 852.826 856.663C962.722 1035.75 1055.34 1212.38 1239.34 1328.47C1351.68 1400.14 1452.97 1458.18 1565.32 1527.34C1641.87 1575.52 1698.69 1669.42 1788.81 1653.35C1951.83 1624.95 1945.62 1407.55 1987.62 1271.68C2014.81 1183.99 2049.41 1093.84 2132.11 1048.12C2479.12 856.663 2859.42 739.324 3250.84 764.014C3291.6 766.468 3327.39 791.157 3354.58 824.511C3386.67 864.024 3422.47 893.672 3453.36 933.186C3510.18 1003.6 3466.98 1098.7 3462.02 1181.44C3455.81 1279.04 3443.5 1439.6 3566.96 1454.43C3807.73 1484.07 3960.83 1267.92 4144.82 1133.31C4209.01 1086.38 4271.99 1049.32 4346.09 1032.65C4411.52 1020.58 4460.59 1019.98 4493.83 1019.98C4527.08 1019.98 4544.85 1019.98 4544.85 1019.98V1053.58C4544.85 1053.58 4527.13 1053.58 4493.83 1053.58C4460.54 1053.58 4411.62 1053.78 4347.49 1060.89C4259.67 1082.68 4184.32 1128.35 4111.48 1185.19C3970.69 1295.12 3850.93 1418.62 3679.31 1471.75C3600.3 1496.49 3484.25 1500.2 3453.36 1407.55C3415.11 1295.12 3441.04 1179.03 3443.5 1065.4C3443.5 1037 3443.5 1003.65 3422.52 983.867C3379.31 945.556 3360.79 898.63 3327.44 850.453C3296.6 806.031 3248.44 784.997 3196.57 782.544C3032.35 775.182 2870.59 793.661 2710.08 839.385C2491.54 902.386 2270.5 959.227 2097.62 1112.37C1988.98 1208.73 1986.52 1361.88 1944.52 1494.04C1914.88 1585.44 1844.48 1734.88 1732.14 1659.56C1575.33 1554.54 1440.75 1459.43 1281.44 1369.29C1144.36 1291.46 1035.72 1195.11 946.801 1060.49C850.473 916.008 788.742 770.224 667.732 650.431C638.093 620.784 593.634 609.666 556.585 626.943C524.493 642.969 499.811 668.911 480.034 699.811C371.391 862.823 272.611 1072.81 51.97 1053.58C18.73 1053.58 0.849976 1053.58 0.849976 1053.58ZM1 1124.99V1091.24C1 1091.24 18.7299 1091.24 52.0199 1091.24C178.79 1098.6 293.638 1039.31 368.937 930.631C429.467 842.94 460.308 744.131 549.225 692.247C655.415 630.498 725.758 775.03 778.878 854.057C885.068 1010.91 966.576 1160.4 1115.97 1276.49C1238.18 1370.39 1364.15 1432.14 1496.27 1508.71C1578.98 1556.89 1641.97 1617.44 1718.52 1675.48C1759.27 1707.58 1817.3 1712.54 1855.6 1675.48C1965.54 1566.81 1975.41 1409.95 2026.02 1272.83C2056.91 1191.3 2107.53 1114.73 2185.33 1075.21C2508.86 912.201 2854.57 744.231 3229.96 826.964C3306.51 844.292 3317.63 928.277 3341.11 993.732C3348.52 1011.01 3367.04 1022.13 3380.61 1036.95C3392.93 1053.03 3399.14 1071.56 3401.59 1090.09C3413.96 1211.13 3375.66 1338.34 3431.23 1449.52C3469.48 1524.84 3567.06 1519.93 3642.36 1503.85C3853.54 1456.93 3981.96 1303.78 4157.29 1182.74C4219.02 1140.77 4279.55 1112.32 4348.24 1096.75C4411.87 1091.39 4460.74 1091.39 4493.98 1091.39C4527.23 1091.39 4545 1091.39 4545 1091.39V1124.99C4545 1124.99 4527.28 1124.99 4493.98 1124.99C4460.69 1124.99 4411.87 1124.99 4348.64 1128.9C4275.84 1143.22 4211.61 1174.12 4146.17 1217.34C4000.48 1317.4 3886.88 1433.49 3727.57 1495.24C3621.38 1537.26 3451.01 1576.77 3394.18 1452.02C3350.97 1355.66 3379.36 1245.74 3365.79 1139.52C3362.09 1103.71 3337.41 1079.02 3313.92 1051.83C3307.72 1044.41 3304.01 1035.75 3301.56 1025.88C3286.74 951.765 3280.58 859.116 3191.66 841.838C2818.72 772.677 2480.42 935.689 2168.01 1119.73C2098.87 1160.5 2059.37 1234.62 2032.18 1309.94C1985.22 1438.4 1965.49 1580.48 1869.17 1685.45C1833.32 1723.71 1776.54 1729.92 1732.09 1699.02C1641.92 1636.02 1575.23 1564.4 1481.41 1511.27C1348.03 1435.94 1218.36 1376.65 1094.9 1281.55C952.908 1171.62 868.947 1035.75 766.462 888.763C722.003 824.51 683.753 750.441 602.245 734.365C550.377 724.499 515.831 768.971 489.897 808.484C384.958 970.294 261.5 1148.13 51.97 1124.99C18.73 1124.99 1 1124.99 1 1124.99ZM0.849976 1196.41V1162.75C0.849976 1162.75 18.58 1162.75 51.87 1162.75C85.16 1162.75 133.68 1161.5 192.61 1148.58C346.608 1111.07 420.706 964.085 514.53 845.494C575.06 767.669 665.179 810.889 713.342 877.596C859.035 1072.76 987.454 1260.46 1203.54 1375.35C1377.67 1469.2 1550.5 1547.02 1694.99 1689.05C1723.43 1717.5 1760.42 1744.64 1802.43 1738.48C1908.62 1722.41 1944.42 1606.32 1979.01 1521.08C2030.83 1390.17 2051.86 1240.68 2175.32 1154.24C2396.31 996.187 2628.47 902.286 2892.72 859.066C2998.91 843.04 3112.51 822.057 3205.13 889.966C3265.66 934.437 3244.63 1013.51 3264.41 1077.72C3270.62 1099.95 3287.89 1115.98 3302.71 1135.76C3322.44 1162.9 3324.94 1193.8 3331.1 1225.91C3348.37 1322.26 3305.16 1435.89 3382.97 1506.31C3481.75 1595.2 3627.49 1556.94 3739.84 1512.47C3874.46 1456.88 3978.15 1366.73 4100.41 1279.04C4178.22 1223.5 4257.27 1180.23 4348.99 1165.36C4411.82 1162.8 4460.69 1162.8 4493.93 1162.8C4527.18 1162.8 4544.95 1162.8 4544.95 1162.8V1196.41C4544.95 1196.41 4527.18 1196.36 4493.88 1196.36C4460.59 1196.36 4411.77 1196.36 4349.19 1198.06C4252.26 1211.08 4170.76 1255.55 4088.05 1314.85C3917.67 1435.89 3757.11 1563.1 3549.69 1575.47C3466.98 1580.43 3365.74 1568.06 3323.74 1489.03C3281.73 1411.2 3311.37 1323.51 3292.85 1237.07C3281.78 1187.69 3247.19 1155.59 3232.37 1109.87C3211.39 1045.67 3236.07 969.093 3184.2 917.21C3122.42 853.006 3026.14 861.62 2944.64 870.284C2664.37 902.386 2407.53 1009.86 2180.33 1185.24C2059.32 1280.34 2034.64 1434.74 1975.36 1569.36C1943.27 1643.43 1904.96 1728.67 1821 1754.61C1780.25 1766.98 1739.5 1747.2 1711.11 1718.8C1554.3 1558.24 1361.65 1475.46 1167.79 1370.49C978.843 1267.97 856.631 1104.96 719.551 943.151C683.753 899.932 631.885 846.796 573.858 872.738C487.444 912.252 449.144 1006.15 381.254 1071.61C326.882 1123.44 267.65 1170.42 193.01 1184.59C133.88 1195.76 85.26 1196.41 51.97 1196.41C18.73 1196.41 0.849976 1196.41 0.849976 1196.41ZM1 1267.82V1234.32C1 1234.32 18.7199 1234.32 52.0199 1234.32C85.3099 1234.32 134.08 1234.07 193.56 1224.95C312.112 1203.82 398.576 1113.63 478.832 1027.19C512.176 990.126 545.52 940.747 597.388 943.201C720.901 949.411 785.086 1081.57 866.594 1164.31C1027.11 1328.57 1224.67 1424.93 1427.18 1518.78C1549.44 1575.62 1628.45 1675.68 1734.64 1758.41C1775.39 1789.31 1828.46 1786.86 1866.76 1755.96C2000.14 1644.78 2019.87 1471.9 2105.08 1327.37C2127.31 1290.31 2148.29 1255.75 2179.18 1226.11C2306.39 1105.06 2465.65 1040.81 2623.71 976.605C2779.32 913.604 2960.81 846.946 3122.57 918.561C3208.99 956.823 3170.69 1070.46 3201.58 1144.58C3241.08 1242.13 3262.06 1340.94 3263.31 1444.71C3265.76 1538.56 3367.04 1581.78 3449.75 1594.15C3626.34 1617.59 3784.35 1544.72 3932.54 1449.62C4069.57 1361.92 4188.13 1252 4349.44 1235.32C4411.82 1234.32 4460.69 1234.32 4493.93 1234.32C4527.18 1234.32 4544.95 1234.32 4544.95 1234.32V1267.92C4544.95 1267.92 4527.18 1267.92 4493.93 1267.92C4460.69 1267.92 4411.87 1267.92 4349.54 1268.47C4157.24 1284.1 4020.21 1429.83 3853.49 1517.53C3674.45 1612.63 3437.39 1681.79 3266.96 1536.06C3202.73 1480.47 3228.66 1393.98 3211.39 1318.65C3187.91 1219.85 3155.82 1129.65 3152.11 1028.39C3149.61 978.958 3117.51 934.487 3066.9 924.621C2774.26 871.536 2523.63 1029.59 2284.06 1177.83C2107.53 1286.5 2063.07 1486.58 1966.75 1657.05C1932.2 1718.8 1888.94 1784.25 1813.64 1796.62C1772.89 1804.04 1737.09 1783.05 1708.7 1757.11C1633.36 1687.95 1570.37 1612.58 1480.25 1561.95C1359.24 1493.99 1238.23 1445.81 1115.97 1381.61C949.303 1293.92 835.703 1156.79 691.212 1037C651.66 1002.4 594.885 990.026 550.427 1024.63C435.575 1116.03 344.204 1242.03 193.96 1260.46C134.03 1267.77 85.26 1267.82 51.97 1267.82C18.72 1267.82 1 1267.82 1 1267.82ZM0.799927 1339.24V1305.59C0.799927 1305.59 18.5299 1305.59 51.8199 1305.59C85.1099 1305.59 133.93 1305.59 194.36 1300.23C287.28 1291.41 368.788 1246.94 436.677 1183.94C518.185 1109.87 631.785 1028.34 730.565 1123.44C919.464 1307.49 1141.71 1427.28 1381.27 1526.09C1471.39 1563.15 1547.94 1618.74 1618.34 1686.65C1670.2 1737.28 1713.46 1810.15 1788.76 1817.56C1881.38 1827.43 1940.66 1739.73 1983.87 1666.87C2076.49 1507.56 2127.11 1333.38 2281.46 1221C2508.66 1056.74 2756.84 891.219 3047.02 954.22C3095.14 964.136 3119.87 1014.77 3122.32 1061.69C3128.53 1154.34 3147.05 1240.83 3164.33 1334.68C3170.49 1365.58 3169.28 1395.18 3171.74 1426.08C3185.3 1582.93 3364.34 1637.27 3497.72 1637.27C3722.46 1637.27 3908.91 1510.07 4100.31 1392.73C4178.12 1344.55 4258.37 1307.49 4349.49 1305.89C4411.72 1305.64 4460.59 1305.64 4493.83 1305.64C4527.08 1305.64 4544.85 1305.64 4544.85 1305.64V1339.24C4544.85 1339.24 4527.08 1339.24 4493.83 1339.24C4460.59 1339.24 4411.77 1339.24 4349.59 1339.29C4268.28 1340.79 4192.98 1367.99 4122.59 1407.5C3917.62 1522.39 3718.81 1660.71 3480.49 1653.3C3344.67 1649.59 3171.79 1605.12 3135.99 1451.97C3117.47 1370.44 3118.72 1293.87 3107.6 1212.34C3101.44 1167.86 3098.99 1125.85 3094.03 1082.63C3091.58 1050.53 3081.67 1015.97 3056.99 996.187C2997.76 948.01 2921.16 957.926 2849.56 971.498C2631.02 1013.51 2447.03 1113.58 2282.81 1255.6C2142.08 1377.9 2084 1545.87 1982.77 1703.98C1937.11 1773.19 1872.87 1833.69 1790.16 1837.39C1760.52 1838.59 1732.14 1821.32 1712.36 1799.08C1600.01 1680.49 1485.16 1573.07 1330.81 1516.23C1118.43 1437.15 929.478 1333.43 747.988 1188.9C682.552 1137.01 597.339 1119.74 525.745 1175.33C425.713 1253.15 322.026 1327.27 194.96 1335.38C134.08 1339.24 85.26 1339.24 51.97 1339.24C18.73 1339.24 0.799927 1339.24 0.799927 1339.24ZM1 1410.65V1377C1 1377 18.7199 1377 52.0199 1377C85.3099 1377 134.13 1377 195.46 1374.55C338.096 1374.14 447.991 1272.88 576.411 1223.45C714.743 1170.37 827.092 1306.24 944.397 1366.73C1077.72 1435.89 1211.1 1487.73 1349.38 1540.86C1495.07 1595.25 1601.26 1700.22 1705 1813.85C1808.74 1928.74 1943.31 1806.44 2008.75 1705.18C2100.12 1565.6 2163.1 1423.57 2279.16 1308.69C2456.94 1130.85 2696.51 987.573 2952.1 994.985C3007.62 996.237 3053.33 1041.91 3060.74 1097.5C3075.56 1213.64 3064.44 1322.31 3087.93 1439.65C3123.72 1608.87 3310.17 1664.41 3460.82 1673.08C3596.65 1679.29 3728.77 1640.98 3852.23 1582.93C4016.45 1507.56 4163.4 1379.1 4349.69 1377.05C4411.82 1377.05 4460.69 1377.05 4493.93 1377.05C4527.18 1377.05 4544.95 1377.05 4544.95 1377.05V1410.65C4544.95 1410.65 4527.23 1410.65 4493.93 1410.65C4460.64 1410.65 4411.82 1410.65 4349.69 1410.65C4174.51 1407.5 4031.27 1518.68 3878.07 1591.6C3784.24 1636.07 3690.42 1668.17 3586.68 1684.24C3374.3 1715.14 3085.37 1652.14 3042.17 1406.35C3021.19 1282.8 3086.62 1129.65 2977.98 1045.67C2903.88 987.623 2803.9 1024.63 2722.39 1055.53C2553.27 1119.73 2392.71 1206.17 2276.65 1350.71C2154.39 1505.11 2080.3 1676.78 1938.31 1811.4C1902.51 1846 1860.56 1870.69 1811.14 1878.11C1766.68 1884.32 1727.18 1862.08 1698.79 1831.18C1600.01 1723.76 1508.64 1613.83 1367.86 1564.4C1155.47 1487.83 952.958 1412.46 752.944 1296.37C610.906 1214.84 484.99 1335.88 355.319 1380.35C303.45 1397.63 250.38 1408.75 195.71 1409.15C134.08 1410.65 85.26 1410.65 51.97 1410.65C18.72 1410.65 1 1410.65 1 1410.65ZM0.899902 1482.07V1448.37C0.899902 1448.37 18.6299 1448.37 51.9199 1448.37C85.1599 1448.37 133.98 1448.37 195.91 1447.66C334.242 1450.67 456.503 1386.46 584.922 1341.99C638.043 1324.72 693.616 1328.42 744.233 1349.41C939.34 1430.94 1131.99 1503.8 1335.71 1570.51C1424.58 1600.16 1504.89 1645.83 1572.78 1712.54C1645.62 1782.9 1695.04 1915.07 1808.64 1894.08C2054.36 1847.16 2138.32 1585.29 2279.11 1400.04C2413.69 1223.4 2600.18 1109.77 2815.02 1059.14C2878 1044.31 2958.25 1050.47 2982.94 1117.18C3016.28 1206.12 2992.8 1302.48 3001.46 1396.33C3013.83 1526.04 3122.47 1614.98 3236.07 1661.91C3450.91 1750.8 3686.77 1705.13 3891.74 1608.77C4039.93 1539.61 4181.92 1443.26 4349.69 1448.37C4411.82 1448.37 4460.69 1448.37 4493.93 1448.37C4527.18 1448.37 4544.95 1448.37 4544.95 1448.37V1481.97C4544.95 1481.97 4527.23 1481.97 4493.93 1481.97C4460.64 1481.97 4411.82 1481.97 4349.69 1481.97C4262.18 1477.86 4176.96 1498.85 4096.71 1535.91C3878.17 1638.42 3654.67 1752.05 3403.99 1722.41C3212.59 1700.17 2990.35 1595.2 2966.87 1382.76C2955.75 1282.75 3007.62 1109.82 2875.5 1095C2670.53 1070.31 2498.9 1217.29 2354.41 1353.16C2267.94 1435.89 2224.74 1542.12 2151.89 1640.93C2062.97 1760.77 1974.11 1894.13 1822.21 1917.62C1687.63 1937.4 1634.56 1784.26 1548.09 1706.43C1461.63 1628.61 1356.69 1590.34 1246.8 1559.44C1087.49 1513.77 935.635 1466.8 783.735 1406.3C645.452 1351.96 514.58 1426.03 378.75 1460.64C317.019 1475.46 257.74 1482.87 196.11 1481.77C134.08 1482.07 85.26 1482.07 51.97 1482.07C18.73 1482.07 0.899902 1482.07 0.899902 1482.07ZM1.09998 1553.48V1519.98C1.09998 1519.98 18.83 1519.98 52.12 1519.98C85.41 1519.98 134.23 1519.98 196.36 1519.98C344.355 1524.94 480.184 1475.56 627.128 1449.62C743.181 1428.63 848.17 1476.81 956.813 1508.91C1076.57 1543.52 1192.67 1564.5 1312.43 1600.31C1393.89 1625 1469.24 1659.55 1534.68 1716.4C1632.2 1800.38 1687.78 1978.27 1840.88 1941.21C1990.28 1904.15 2089.06 1786.81 2173.02 1660.81C2287.87 1489.13 2382.95 1331.03 2561.98 1227.26C2660.76 1170.47 2789.18 1075.36 2894.12 1159.35C2916.35 1176.68 2922.51 1208.78 2923.76 1237.17C2929.97 1345.85 2926.26 1461.94 3005.27 1550.88C3064.54 1618.84 3137.39 1664.51 3218.9 1697.87C3518.94 1817.66 3828.85 1689.2 4105.47 1564.45C4182.02 1529.85 4265.98 1515.02 4349.79 1519.93C4411.92 1519.93 4460.79 1519.93 4494.03 1519.93C4527.28 1519.93 4545.05 1519.93 4545.05 1519.93V1553.53C4545.05 1553.53 4474.06 1553.53 4349.79 1553.53C4318.7 1553.53 4284.25 1553.78 4245.9 1556.19C4184.47 1564.45 4122.74 1579.28 4065.92 1607.67C3720.16 1778.15 3241.08 1880.66 2963.26 1532.35C2892.87 1445.86 2903.98 1339.64 2881.75 1234.67C2869.39 1182.79 2820.02 1161.8 2770.61 1171.67C2591.57 1206.22 2453.29 1319.86 2345.85 1463.14C2197.65 1660.76 2086.5 1900.39 1834.62 1965.85C1761.77 1985.63 1697.59 1941.16 1656.84 1881.86C1560.51 1741.04 1443.2 1643.48 1274.03 1608.87C1133.25 1579.23 1004.83 1559.44 870.249 1519.93C733.168 1479.16 601.043 1495.24 462.761 1528.59C372.642 1549.58 284.976 1554.54 196.21 1553.48C134.08 1553.48 85.26 1553.48 51.97 1553.48C18.73 1553.48 1.09998 1553.48 1.09998 1553.48ZM1 1624.9V1591.35C1 1591.35 71.99 1591.35 196.26 1591.35C227.3 1591.35 261.7 1591.3 298.544 1590.24C409.691 1587.89 517.133 1564.4 629.481 1550.83C686.306 1544.62 739.376 1543.42 796.201 1553.28C933.232 1574.27 1060.4 1600.21 1197.48 1621.19C1322.2 1640.98 1448.16 1668.12 1538.28 1764.47C1586.44 1816.36 1622.24 1870.69 1667.95 1925.03C1725.98 1994.19 1821.05 2016.43 1901.31 1976.92C2016.16 1921.33 2109.99 1843.5 2187.79 1738.53C2319.91 1561.9 2419.89 1381.56 2615 1269.18C2685.39 1229.66 2815.02 1176.53 2838.5 1284C2878 1472.96 2973.07 1634.77 3148.41 1711.34C3376.86 1811.4 3631.24 1796.58 3860.9 1712.59C3988.06 1666.92 4110.33 1606.37 4246.2 1592.8C4284.2 1591.35 4318.65 1591.3 4349.69 1591.3C4473.96 1591.3 4544.95 1591.3 4544.95 1591.3V1624.9C4544.95 1624.9 4473.96 1624.9 4349.69 1624.9C4318.65 1624.9 4284.25 1624.9 4246.46 1625.65C4170.81 1629.86 4097.96 1649.59 4027.57 1676.78C3748.5 1786.71 3436.09 1857.12 3147.15 1731.12C2975.53 1657 2861.93 1505.06 2808.81 1327.22C2787.83 1255.55 2700.16 1266.67 2644.59 1296.32C2559.38 1341.99 2488.99 1398.83 2424.8 1471.7C2305.04 1607.57 2230.95 1763.22 2088.96 1879.31C1997.59 1953.43 1900.06 2036.21 1775.34 2016.43C1728.43 2009.02 1692.63 1976.92 1661.74 1941.11C1593.85 1864.53 1546.89 1775.59 1456.77 1720C1388.88 1679.24 1315.99 1663.16 1240.69 1653.3C1051.74 1631.11 870.249 1586.64 682.551 1592.8C554.131 1597.76 426.964 1622.45 299.045 1624.75C261.65 1624.9 227.25 1624.9 196.21 1624.9C71.94 1624.9 1 1624.9 1 1624.9ZM0.899902 1696.31V1662.56C0.899902 1662.56 71.8999 1662.56 196.16 1662.56C227.25 1662.56 261.6 1662.56 299.045 1662.51C425.713 1663.06 550.427 1648.24 677.595 1640.82C739.326 1637.12 798.605 1639.62 860.336 1645.78C987.504 1659.4 1111.02 1668.02 1238.18 1680.39C1348.08 1692.76 1457.97 1723.61 1534.53 1812.55C1604.92 1894.08 1649.38 2002.76 1755.57 2033.66C1906.22 2076.88 2037.14 1960.79 2145.78 1864.43C2258.13 1764.37 2329.78 1640.87 2428.56 1527.24C2492.74 1453.12 2563.13 1388.92 2652.05 1348.15C2696.51 1328.42 2754.54 1332.13 2776.77 1379.05C2861.93 1559.39 3001.46 1705.18 3192.86 1773.09C3483.05 1874.4 3779.39 1792.87 4058.46 1697.77C4120.19 1676.78 4181.92 1665.66 4246.66 1662.96C4284.25 1662.71 4318.65 1662.71 4349.69 1662.71C4473.96 1662.71 4544.95 1662.71 4544.95 1662.71V1696.31C4544.95 1696.31 4473.96 1696.31 4349.69 1696.31C4318.65 1696.31 4284.25 1696.31 4246.76 1696.36C4204.15 1696.56 4160.94 1699.02 4118.94 1711.39C3794.21 1801.53 3459.57 1911.46 3133.59 1769.43C2974.28 1700.27 2864.38 1575.52 2755.74 1438.4C2670.53 1330.93 2544.61 1461.89 2474.22 1533.5C2366.82 1643.43 2290.27 1768.18 2175.42 1870.69C2064.27 1969.5 1937.11 2078.23 1781.5 2062.15C1651.83 2047.33 1602.47 1912.71 1520.96 1825.02C1467.89 1769.43 1401.2 1731.12 1324.65 1721.25C1112.27 1694.11 904.795 1679.29 693.666 1681.74C561.542 1684.19 430.669 1697.77 299.095 1696.31C261.65 1696.31 227.25 1696.31 196.21 1696.31C71.95 1696.31 0.899902 1696.31 0.899902 1696.31ZM0.949951 1734.12C0.949951 1734.12 111.9 1734.12 299.096 1734.12C336.545 1734.12 377.049 1734.12 419.955 1733.62C693.667 1718.8 966.577 1727.46 1240.69 1741.04C1295.01 1743.49 1349.33 1749.7 1401.2 1770.68C1512.35 1816.41 1565.42 1925.08 1643.22 2010.32C1690.13 2060.95 1751.86 2096.81 1821 2088.14C2004.95 2064.71 2150.69 1942.41 2277.86 1813.95C2385.25 1705.23 2463.05 1585.44 2595.18 1497.75C2648.25 1461.94 2714.93 1458.23 2755.69 1508.86C2929.77 1717.6 3170.54 1843.6 3436.04 1860.88C3644.71 1873.25 3839.82 1813.95 4042.34 1759.62C4110.28 1741.09 4178.17 1734.88 4246.76 1734.18C4284.21 1734.18 4318.6 1734.18 4349.64 1734.18C4473.91 1734.18 4544.9 1734.18 4544.9 1734.18V1767.78C4544.9 1767.78 4473.91 1767.78 4349.64 1767.78C4318.6 1767.78 4284.21 1767.78 4246.76 1767.78C4204.1 1766.98 4160.89 1768.23 4116.43 1775.64C3874.41 1817.66 3650.92 1900.39 3406.45 1878.16C3154.56 1854.67 2939.68 1732.42 2750.78 1565.65C2666.82 1491.54 2567.99 1569.36 2503.81 1632.36C2307.5 1818.86 2135.87 2035.01 1860.51 2104.17C1766.68 2127.61 1679.02 2085.64 1619.74 2011.52C1532.07 1900.34 1441.95 1774.34 1290.05 1771.89C999.921 1766.98 710.939 1758.31 420.305 1767.73C377.048 1767.73 336.545 1767.73 299.096 1767.73C111.9 1767.73 0.949951 1767.73 0.949951 1767.73V1734.12Z" fill="#FDF1F4"/>
</svg>
